<svg width="200" height="200" viewBox="0 0 200 200" fill="none" xmlns="http://www.w3.org/2000/svg">
  <path d="M140 80C140 102.091 122.091 120 100 120C77.9086 120 60 102.091 60 80C60 57.9086 77.9086 40 100 40C122.091 40 140 57.9086 140 80Z" fill="#FF007A"/>
  <path d="M120 140C120 151.046 111.046 160 100 160C88.9543 160 80 151.046 80 140C80 128.954 88.9543 120 100 120C111.046 120 120 128.954 120 140Z" fill="#FF007A"/>
  <path d="M70 110C70 115.523 65.5228 120 60 120C54.4772 120 50 115.523 50 110C50 104.477 54.4772 100 60 100C65.5228 100 70 104.477 70 110Z" fill="#FF007A"/>
</svg>
